HIERARCHY
ROOT Hips
{
  OFFSET 47.7306 102.742 -13.1373
  CHANNELS 6 Xposition Yposition Zposition Zrotation Xrotation Yrotation
  JOINT Chest
  {
    OFFSET 1.23234e-007 14.8421 1.27322e-009
    CHANNELS 6 Xposition Yposition Zposition Zrotation Xrotation Yrotation
    JOINT Neck
    {
      OFFSET 0.51659 29.8236 6.51843
      CHANNELS 6 Xposition Yposition Zposition Zrotation Xrotation Yrotation
      JOINT Head
      {
        OFFSET 1.16803e-007 7.47049 6.44171e-007
        CHANNELS 6 Xposition Yposition Zposition Zrotation Xrotation Yrotation
        End Site
        {
          OFFSET -4.32676e-008 16.2908 2.16786e-007
        }
      }
    }
    JOINT LeftCollar
    {
      OFFSET 6.64893 27.3161 3.27471
      CHANNELS 6 Xposition Yposition Zposition Zrotation Xrotation Yrotation
      JOINT LeftUpArm
      {
        OFFSET 10.8584 2.41798 -0.945791
        CHANNELS 6 Xposition Yposition Zposition Zrotation Xrotation Yrotation
        JOINT LeftLowArm
        {
          OFFSET 3.77631 -24.5904 -1.70468
          CHANNELS 6 Xposition Yposition Zposition Zrotation Xrotation Yrotation
          JOINT LeftHand
          {
            OFFSET 1.01026 -21.1231 1.74131
            CHANNELS 6 Xposition Yposition Zposition Zrotation Xrotation Yrotation
            End Site
            {
              OFFSET 1.17583e-006 -9.81266 -2.89439e-008
            }
          }
        }
      }
    }
    JOINT RightCollar
    {
      OFFSET -6.11406 27.2248 4.23427
      CHANNELS 6 Xposition Yposition Zposition Zrotation Xrotation Yrotation
      JOINT RightUpArm
      {
        OFFSET -10.4566 2.3285 -0.910794
        CHANNELS 6 Xposition Yposition Zposition Zrotation Xrotation Yrotation
        JOINT RightLowArm
        {
          OFFSET -3.86856 -25.191 -1.74633
          CHANNELS 6 Xposition Yposition Zposition Zrotation Xrotation Yrotation
          JOINT RightHand
          {
            OFFSET -1.04759 -20.6242 1.75213
            CHANNELS 6 Xposition Yposition Zposition Zrotation Xrotation Yrotation
            End Site
            {
              OFFSET -2.03487e-006 -9.50367 -4.31372e-006
            }
          }
        }
      }
    }
  }
  JOINT LeftUpLeg
  {
    OFFSET 9 -3.38008e-006 -5.22998e-009
    CHANNELS 6 Xposition Yposition Zposition Zrotation Xrotation Yrotation
    JOINT LeftLowLeg
    {
      OFFSET -0.575 -51.431 3.90177
      CHANNELS 6 Xposition Yposition Zposition Zrotation Xrotation Yrotation
      JOINT LeftFoot
      {
        OFFSET 2.13082e-007 -43.5882 -3.90177
        CHANNELS 6 Xposition Yposition Zposition Zrotation Xrotation Yrotation
        End Site
        {
          OFFSET 7.44796e-007 -6.93413 15.0046
        }
      }
    }
  }
  JOINT RightUpLeg
  {
    OFFSET -9 6.86154e-007 -3.19539e-009
    CHANNELS 6 Xposition Yposition Zposition Zrotation Xrotation Yrotation
    JOINT RightLowLeg
    {
      OFFSET 0.575 -51.4311 3.90177
      CHANNELS 6 Xposition Yposition Zposition Zrotation Xrotation Yrotation
      JOINT RightFoot
      {
        OFFSET -7.46079e-007 -43.5882 -3.90177
        CHANNELS 6 Xposition Yposition Zposition Zrotation Xrotation Yrotation
        End Site
        {
          OFFSET 4.66716e-007 -6.93413 15.0046
        }
      }
    }
  }
}
MOTION
Frames:	8
Frame Time:	0.0333333
54.2974 79.3011 89.6011 2.94091 0.566338 -28.3369 1.23234e-007 14.8421 1.2725e-009 -10.0558 11.2274 16.2729 0.51659 29.8236 6.51843 2.37129 14.1944 -1.76754 1.16803e-007 7.47049 6.44171e-007 -2.71153 5.40833 0.577367 6.64893 27.3161 3.27471 -2.94784 5.93879 -4.20517 10.8584 2.41798 -0.945791 151.061 -46.1759 88.3101 3.77631 -24.5904 -1.70468 20.8969 -45.6395 30.8736 1.01026 -21.1231 1.74131 41.7291 30.4788 -4.87046 -6.11406 27.2248 4.23427 -1.96452 7.32629 3.42623 -10.4566 2.3285 -0.910794 -138.793 -50.2812 -129.251 -3.86856 -25.191 -1.74633 7.03807 -52.6939 14.709 -1.04759 -20.6242 1.75213 -23.4767 25.4768 0.94025 9 -3.38008e-006 -5.23284e-009 31.4741 -48.8262 33.2077 -0.575 -51.431 3.90177 -6.72634 54.2377 -2.56211 2.13082e-007 -43.5882 -3.90177 -4.72046 5.59491 0.722897 -9 6.86154e-007 -3.19676e-009 -26.8792 -0.602482 -27.7389 0.575 -51.4311 3.90177 -19.4231 60.6635 -3.24339 -7.46079e-007 -43.5882 -3.90177 -1.7406 -17.7361 0.143361 
55.1631 79.2826 91.4831 3.30815 0.36499 -30.4541 1.23234e-007 14.8421 1.27255e-009 -8.62265 11.3704 15.739 0.51659 29.8236 6.51843 3.53454 15.1259 -1.90245 1.16803e-007 7.47049 6.44171e-007 -5.08641 5.49206 1.53164 6.64893 27.3161 3.27471 -2.94784 5.93879 -4.20517 10.8584 2.41798 -0.945791 147.151 -47.5511 87.22 3.77631 -24.5904 -1.70468 20.1411 -46.7757 29.8659 1.01026 -21.1231 1.74131 40.9858 29.653 -4.46586 -6.11406 27.2248 4.23427 -1.96452 7.32629 3.42623 -10.4566 2.3285 -0.910794 -145.495 -53.6019 -131.899 -3.86856 -25.191 -1.74633 -1.75397 -47.3763 9.81793 -1.04759 -20.6242 1.75213 -21.9823 24.7722 0.68662 9 -3.38008e-006 -5.23271e-009 31.6216 -48.837 33.4718 -0.575 -51.431 3.90177 -6.74062 56.9607 -1.10774 2.13082e-007 -43.5882 -3.90177 -4.60879 5.11939 0.688847 -9 6.86154e-007 -3.19672e-009 -28.6255 -4.7778 -27.0986 0.575 -51.4311 3.90177 -21.6372 59.9833 -1.72676 -7.46079e-007 -43.5882 -3.90177 -2.1623 -22.9647 0.0966083 
56.2392 79.2617 92.4279 4.34398 0.0863568 -34.5952 1.23234e-007 14.8421 1.2726e-009 -7.99625 12.0495 15.5788 0.51659 29.8236 6.51843 3.29731 13.5098 -0.0530037 1.16803e-007 7.47049 6.44171e-007 -8.64134 8.79398 4.21512 6.64893 27.3161 3.27471 -2.94784 5.93879 -4.20517 10.8584 2.41798 -0.945791 141.494 -47.6214 83.0368 3.77631 -24.5904 -1.70468 21.4554 -44.8045 27.4136 1.01026 -21.1231 1.74131 38.8891 27.9617 -3.59923 -6.11406 27.2248 4.23427 -1.96452 7.32629 3.42623 -10.4566 2.3285 -0.910794 -160.48 -56.2506 -138.714 -3.86856 -25.191 -1.74633 -13.5686 -36.4145 6.29386 -1.04759 -20.6242 1.75213 -19.6928 22.8552 0.231653 9 -3.38008e-006 -5.23258e-009 32.8909 -47.8994 35.5552 -0.575 -51.431 3.90177 -7.97045 58.5525 2.69431 2.13082e-007 -43.5882 -3.90177 -4.11047 3.83641 0.563337 -9 6.86154e-007 -3.19667e-009 -30.4508 -11.268 -25.5876 0.575 -51.4311 3.90177 -25.2646 58.7945 -0.480035 -7.46079e-007 -43.5882 -3.90177 -2.26389 -25.4131 0.0707282 
57.3111 79.112 92.9469 5.65592 0.156895 -38.2519 1.23234e-007 14.8421 1.27264e-009 -7.87263 13.9219 14.2555 0.51659 29.8236 6.51843 2.59288 9.27641 2.84883 1.16803e-007 7.47049 6.44171e-007 -11.8275 12.2004 7.6671 6.64893 27.3161 3.27471 -2.94784 5.93879 -4.20517 10.8584 2.41798 -0.945791 137.16 -45.2995 80.8328 3.77631 -24.5904 -1.70468 21.5865 -41.8256 24.9757 1.01026 -21.1231 1.74131 35.9496 27.6466 -3.1002 -6.11406 27.2248 4.23427 -1.96452 7.32629 3.42623 -10.4566 2.3285 -0.910794 -179.095 -55.3987 -148.136 -3.86856 -25.191 -1.74633 -22.7326 -23.16 3.77724 -1.04759 -20.6242 1.75213 -17.7563 21.6534 -0.0457653 9 -3.38008e-006 -5.23244e-009 34.3401 -47.9436 37.8925 -0.575 -51.431 3.90177 -9.06428 59.8018 7.40549 2.13082e-007 -43.5882 -3.90177 -4.4248 3.93801 0.613251 -9 6.86154e-007 -3.19662e-009 -31.851 -16.3413 -24.6757 0.575 -51.4311 3.90177 -28.0061 57.761 -2.35956 -7.46079e-007 -43.5882 -3.90177 -1.70285 -22.7357 0.15105 
57.6017 78.8665 93.3253 6.13709 0.875317 -39.2899 1.23234e-007 14.8421 1.27269e-009 -7.60308 15.2567 11.7561 0.51659 29.8236 6.51843 2.77359 6.74897 5.23554 1.16803e-007 7.47049 6.44171e-007 -12.1131 13.5941 10.1456 6.64893 27.3161 3.27471 -2.94784 5.93879 -4.20517 10.8584 2.41798 -0.945791 139.962 -47.0356 81.5895 3.77631 -24.5904 -1.70468 23.889 -32.2716 25.8845 1.01026 -21.1231 1.74131 37.9737 26.3319 -2.98024 -6.11406 27.2248 4.23427 -1.96452 7.32629 3.42623 -10.4566 2.3285 -0.910794 170.215 -55.4197 -153.71 -3.86856 -25.191 -1.74633 -28.0859 -14.7018 4.99537 -1.04759 -20.6242 1.75213 -17.3649 20.6696 -0.162196 9 -3.38008e-006 -5.2323e-009 35.8578 -49.1503 39.0534 -0.575 -51.431 3.90177 -8.47439 61.4899 6.48392 2.13082e-007 -43.5882 -3.90177 -5.21518 5.38523 0.786946 -9 6.86154e-007 -3.19657e-009 -32.1983 -16.1518 -23.9751 0.575 -51.4311 3.90177 -27.0094 56.4309 1.44945 -7.46079e-007 -43.5882 -3.90177 -2.10486 -19.9495 0.111089 
57.3099 78.6186 93.873 6.48296 1.17549 -38.6711 1.23234e-007 14.8421 1.27274e-009 -7.28166 17.3642 9.70495 0.51659 29.8236 6.51843 4.06924 2.3823 5.75422 1.16803e-007 7.47049 6.44171e-007 -12.5815 15.6572 11.2238 6.64893 27.3161 3.27471 -2.94784 5.93879 -4.20517 10.8584 2.41798 -0.945791 148.026 -51.1641 89.1979 3.77631 -24.5904 -1.70468 28.7586 -18.3155 24.1027 1.01026 -21.1231 1.74131 36.6979 26.1003 -2.76237 -6.11406 27.2248 4.23427 -1.96452 7.32629 3.42623 -10.4566 2.3285 -0.910794 168.054 -56.3007 -154.323 -3.86856 -25.191 -1.74633 -27.5028 -15.0726 7.4034 -1.04759 -20.6242 1.75213 -17.3939 18.9305 -0.316582 9 -3.38008e-006 -5.23217e-009 34.8296 -49.8642 37.7839 -0.575 -51.431 3.90177 -7.77803 62.0289 5.84705 2.13082e-007 -43.5882 -3.90177 -4.34163 3.68176 0.591318 -9 6.86154e-007 -3.19651e-009 -33.414 -12.8047 -24.2299 0.575 -51.4311 3.90177 -23.6781 53.3324 6.60107 -7.46079e-007 -43.5882 -3.90177 -3.34349 -21.69 -0.0192359 
56.709 78.7782 94.3272 6.42001 1.85589 -38.0393 1.23234e-007 14.8421 1.27279e-009 -7.92484 18.9924 8.0799 0.51659 29.8236 6.51843 5.19895 -0.138115 5.66377 1.16803e-007 7.47049 6.44171e-007 -12.5397 16.8954 11.4636 6.64893 27.3161 3.27471 -2.94784 5.93879 -4.20517 10.8584 2.41798 -0.945791 152.077 -52.0104 95.3308 3.77631 -24.5904 -1.70468 28.2797 -15.2627 21.054 1.01026 -21.1231 1.74131 34.9133 23.9586 -1.97212 -6.11406 27.2248 4.23427 -1.96452 7.32629 3.42623 -10.4566 2.3285 -0.910794 167.279 -57.4522 -154.555 -3.86856 -25.191 -1.74633 -26.711 -14.4886 8.1257 -1.04759 -20.6242 1.75213 -17.18 18.6483 -0.352113 9 -3.38008e-006 -5.23203e-009 34.031 -49.8758 36.6001 -0.575 -51.431 3.90177 -6.98258 61.5148 5.73557 2.13082e-007 -43.5882 -3.90177 -2.94588 1.21257 0.328736 -9 6.86154e-007 -3.19646e-009 -34.7603 -11.2941 -26.3754 0.575 -51.4311 3.90177 -20.5979 52.6253 10.9717 -7.46079e-007 -43.5882 -3.90177 -3.90339 -20.154 -0.0466717 
55.7572 79.4746 94.6367 5.53973 2.68364 -37.9068 1.23234e-007 14.8421 1.27284e-009 -8.22676 20.8525 8.30738 0.51659 29.8236 6.51843 6.66136 -2.30334 4.90926 1.16803e-007 7.47049 6.44171e-007 -12.5421 18.1692 11.1883 6.64893 27.3161 3.27471 -2.94784 5.93879 -4.20517 10.8584 2.41798 -0.945791 154.988 -52.507 102.093 3.77631 -24.5904 -1.70468 25.4709 -16.2769 17.7819 1.01026 -21.1231 1.74131 34.381 21.4354 -1.26601 -6.11406 27.2248 4.23427 -1.96452 7.32629 3.42623 -10.4566 2.3285 -0.910794 167.873 -58.2459 -153.755 -3.86856 -25.191 -1.74633 -25.4328 -13.6277 8.93749 -1.04759 -20.6242 1.75213 -17.3161 17.7122 -0.429393 9 -3.38008e-006 -5.23188e-009 34.5705 -48.9244 36.3485 -0.575 -51.431 3.90177 -6.07765 60.5826 4.8857 2.13082e-007 -43.5882 -3.90177 -2.11558 -0.0819372 0.206572 -9 6.86154e-007 -3.1964e-009 -35.1975 -11.7695 -28.34 0.575 -51.4311 3.90177 -19.0419 54.609 15.8146 -7.46079e-007 -43.5882 -3.90177 -3.79429 -12.9001 0.0967099 
